<svg width="501" height="119" viewBox="0 0 501 119" fill="none" xmlns="http://www.w3.org/2000/svg">
<path d="M76.0247 30.8587L60.9742 56.9803H60.8721L45.9746 31.1138L76.0247 30.8587Z" fill="#83FF50" stroke="#83FF50" stroke-width="0.510185" stroke-miterlimit="5.3333"/>
<mask id="mask0_4771_5760" style="mask-type:luminance" maskUnits="userSpaceOnUse" x="5" y="0" width="82" height="36">
<path d="M86.271 35.5607H5.45703V0.000526428H86.271V35.5607Z" fill="white"/>
</mask>
<g mask="url(#mask0_4771_5760)">
<g opacity="0.83">
<path d="M76.1571 30.7129L76.1061 30.815H76.0551V30.866L45.9539 31.1211V31.0701H15.8017L15.5977 30.7129L30.7503 4.48923H61.0555L76.1571 30.7129Z" fill="#96FF5B" fill-opacity="0.6471"/>
</g>
</g>
<path d="M76.0914 30.8192L61.0403 56.9418H60.9893L76.0403 30.8192H76.0914Z" fill="white"/>
<path d="M61.0585 57.3183L61.0074 57.4203L45.9058 83.542H15.6516L0.499023 57.3183L15.6516 31.0946H15.8047L30.7022 56.9611H60.8544L61.0585 57.3183Z" fill="#00D6FF" stroke="#00D6FF" stroke-width="0.510185" stroke-miterlimit="5.3333"/>
<path d="M60.8495 56.9579H30.7483L15.7998 31.0913H45.952L60.8495 56.9579Z" fill="#7DFFFF" stroke="#7DFFFF" stroke-width="0.510185" stroke-miterlimit="5.3333"/>
<path d="M76.2476 82.8961L76.5027 83.3042H76.0435L64.5643 83.4063L45.9424 83.5593L61.044 57.4377H90.9921L76.2476 82.8961Z" fill="#32E6FF" stroke="#32E6FF" stroke-width="0.510185" stroke-miterlimit="5.3333"/>
<mask id="mask1_4771_5760" style="mask-type:luminance" maskUnits="userSpaceOnUse" x="38" y="48" width="62" height="71">
<path d="M99.3191 118.67H38.1475V48.6719H99.3191V118.67Z" fill="white"/>
</mask>
<g mask="url(#mask1_4771_5760)">
<g opacity="0.86">
<path d="M91.6844 109.142L91.2252 109.907H60.971L45.8184 83.6831L45.8694 83.5811L60.971 57.4594H61.022L45.9204 83.5301L64.5423 83.377L76.0726 83.275H76.5317L91.3782 109.142H91.6844Z" fill="#00D5FF" fill-opacity="0.5451"/>
</g>
</g>
<path d="M76.2461 82.8963L76.5012 83.3044H76.042L61.1445 57.4379H90.9906L76.2461 82.8963Z" fill="#20E6FF" stroke="#20E6FF" stroke-width="0.510185" stroke-miterlimit="5.3333"/>
<path d="M106.191 83.3026H76.4983L76.2432 82.8945L90.9366 57.436H91.2427L106.191 83.3026Z" fill="#2AF0FF" stroke="#2AF0FF" stroke-width="0.510185" stroke-miterlimit="5.3333"/>
<mask id="mask2_4771_5760" style="mask-type:luminance" maskUnits="userSpaceOnUse" x="71" y="79" width="41" height="35">
<path d="M111.418 113.466H71.5205V79.0277H111.418V113.466Z" fill="white"/>
</mask>
<g mask="url(#mask2_4771_5760)">
<g opacity="0.95">
<path d="M106.394 83.6636L91.7007 109.122H91.3946L76.4971 83.3065H106.19L106.394 83.6636Z" fill="#29EFFF" fill-opacity="0.8"/>
</g>
</g>
<path d="M121.491 57.0654L106.338 83.2891H106.185L91.2879 57.4225H61.1357L60.9316 57.0654L60.9827 56.9633L76.0332 30.8416V30.7906H106.338L121.236 56.6062L121.491 57.0654Z" fill="#32F8B9" stroke="#32F8B9" stroke-width="0.510185" stroke-miterlimit="5.3333"/>
<mask id="mask3_4771_5760" style="mask-type:luminance" maskUnits="userSpaceOnUse" x="83" y="48" width="62" height="71">
<path d="M144.225 118.669H83.666V48.2123H144.225V118.669Z" fill="white"/>
</mask>
<g mask="url(#mask3_4771_5760)">
<g opacity="0.85">
<path d="M136.621 83.2663L121.468 109.49L91.2139 109.898L106.213 84.0316L106.009 83.6745H106.162L121.315 57.4508L121.06 57.0426H121.519L136.621 83.2663Z" fill="#32F6B8" fill-opacity="0.5647"/>
</g>
</g>
<path d="M155.729 81.0844V33.0861H176.278V40.385H162.949V53.4754H172.707V60.7743H162.949V73.7854H176.278V81.0844H155.729Z" fill="white"/>
<path d="M194.371 44.125L191.673 63.007H197.068L194.371 44.125ZM190.563 70.0679L188.817 81.0956H181.28L189.452 33.1767H199.369L207.382 81.0956H199.766L198.099 70.0679H190.563Z" fill="white"/>
<path d="M229.225 44.6988C229.225 41.922 227.876 40.494 225.1 40.494H220.736V55.8058H225.1C226.21 55.8058 227.242 55.4092 228.035 54.6158C228.828 53.8224 229.225 52.7911 229.225 51.6804V44.6988ZM224.941 33.1157C228.987 33.1157 231.923 34.2264 233.827 36.4479C235.493 38.3519 236.286 41.1287 236.286 44.5401V51.5217C236.286 54.9331 235.017 57.7892 232.399 60.1693L237.793 81.114H229.939L225.576 63.0254H224.941H220.736V81.114H213.517V33.1951H224.941V33.1157Z" fill="white"/>
<path d="M249.27 40.4137H241.574V33.1148H264.185V40.4137H256.489V81.113H249.27V40.4137Z" fill="white"/>
<path d="M277.201 60.7684V81.0784H269.981V33.1594H277.201V53.4695H285.928V33.0801H293.148V80.999H285.928V60.7684H277.201Z" fill="white"/>
<path d="M319.322 81.0844H299.646V33.1654H306.866V73.8648H319.322V81.0844Z" fill="white"/>
<path d="M325.024 60.9976L315.345 33.0713H323.278L328.673 50.2872L333.989 33.0713H342.002L332.243 60.9976V81.0696H325.024V60.9976Z" fill="white"/>
<path d="M491.932 44.6988C491.932 41.922 490.583 40.494 487.807 40.494H483.443V55.8058H487.807C488.917 55.8058 489.949 55.4092 490.742 54.6158C491.535 53.8224 491.932 52.7911 491.932 51.6804V44.6988ZM487.648 33.1157C491.694 33.1157 494.63 34.2264 496.534 36.4479C498.2 38.3519 498.993 41.1287 498.993 44.5401V51.5217C498.993 54.9331 497.724 57.7892 495.106 60.1693L500.5 81.114H492.646L488.283 63.0254H487.648H483.443V81.114H476.224V33.1951H487.648V33.1157Z" fill="#89B0C7"/>
<path d="M457.229 44.125L454.532 63.007H459.927L457.229 44.125ZM453.421 70.0679L451.676 81.0956H444.139L452.31 33.1767H462.227L470.24 81.0956H462.624L460.958 70.0679H453.421Z" fill="#89B0C7"/>
<path d="M422.21 55.2388V81.0786H414.99V33.1597H422.21L430.937 58.4615V33.0803H438.156V80.9993H430.937L422.21 55.2388Z" fill="#89B0C7"/>
<path d="M396.539 81.0786V81.0786C390.631 81.0786 385.842 76.2893 385.842 70.3815V33.1597H393.061V69.4814C393.061 71.8913 395.015 73.8449 397.425 73.8449V73.8449C399.835 73.8449 401.788 71.8913 401.788 69.4814V33.0804H409.008V70.301C409.008 76.2223 404.231 81.0347 398.31 81.0786V81.0786H396.539Z" fill="#89B0C7"/>
<path d="M359.312 81.0844V33.0861H366.531V40.385V53.4754V60.7743V73.7854H379.86V81.0844H359.312Z" fill="#89B0C7"/>
</svg>
